<mxfile host="Electron" agent="Mozilla/5.0 (Windows NT 10.0; Win64; x64) AppleWebKit/537.36 (KHTML, like Gecko) draw.io/25.0.2 Chrome/128.0.6613.186 Electron/32.2.5 Safari/537.36" version="25.0.2">
  <diagram name="第 1 页" id="y5mqh21Npqfg-GLO7RLq">
    <mxGraphModel dx="1098" dy="987" grid="1" gridSize="10" guides="1" tooltips="1" connect="1" arrows="1" fold="1" page="1" pageScale="1" pageWidth="827" pageHeight="1169" math="0" shadow="0">
      <root>
        <mxCell id="0" />
        <mxCell id="1" parent="0" />
        <mxCell id="a0_Y8HoA8iCjuZJ2-91r-8" style="rounded=0;orthogonalLoop=1;jettySize=auto;html=1;exitX=1;exitY=0.3333333333333333;exitDx=0;exitDy=0;exitPerimeter=0;entryX=0;entryY=0.5;entryDx=0;entryDy=0;endArrow=none;endFill=0;" parent="1" source="a0_Y8HoA8iCjuZJ2-91r-1" target="a0_Y8HoA8iCjuZJ2-91r-5" edge="1">
          <mxGeometry relative="1" as="geometry" />
        </mxCell>
        <mxCell id="a0_Y8HoA8iCjuZJ2-91r-1" value="渔夫" style="shape=umlActor;verticalLabelPosition=bottom;verticalAlign=top;html=1;outlineConnect=0;" parent="1" vertex="1">
          <mxGeometry x="71" y="180" width="30" height="60" as="geometry" />
        </mxCell>
        <mxCell id="a0_Y8HoA8iCjuZJ2-91r-4" value="小船" style="shape=umlActor;verticalLabelPosition=bottom;verticalAlign=top;html=1;outlineConnect=0;" parent="1" vertex="1">
          <mxGeometry x="90" y="400" width="30" height="60" as="geometry" />
        </mxCell>
        <mxCell id="a0_Y8HoA8iCjuZJ2-91r-5" value="操作船只" style="ellipse;whiteSpace=wrap;html=1;" parent="1" vertex="1">
          <mxGeometry x="170" y="110" width="70" height="40" as="geometry" />
        </mxCell>
        <mxCell id="a0_Y8HoA8iCjuZJ2-91r-6" value="攻击" style="ellipse;whiteSpace=wrap;html=1;" parent="1" vertex="1">
          <mxGeometry x="170" y="180" width="70" height="40" as="geometry" />
        </mxCell>
        <mxCell id="a0_Y8HoA8iCjuZJ2-91r-15" style="edgeStyle=orthogonalEdgeStyle;rounded=0;orthogonalLoop=1;jettySize=auto;html=1;dashed=1;dashPattern=8 8;endArrow=open;endFill=0;" parent="1" edge="1">
          <mxGeometry relative="1" as="geometry">
            <mxPoint x="222" y="280" as="sourcePoint" />
            <mxPoint x="240" y="130" as="targetPoint" />
            <Array as="points">
              <mxPoint x="442" y="280" />
              <mxPoint x="442" y="130" />
            </Array>
          </mxGeometry>
        </mxCell>
        <mxCell id="a0_Y8HoA8iCjuZJ2-91r-7" value="寻找马林鱼" style="ellipse;whiteSpace=wrap;html=1;" parent="1" vertex="1">
          <mxGeometry x="170" y="260" width="70" height="40" as="geometry" />
        </mxCell>
        <mxCell id="a0_Y8HoA8iCjuZJ2-91r-9" style="rounded=0;orthogonalLoop=1;jettySize=auto;html=1;exitX=1;exitY=0.3333333333333333;exitDx=0;exitDy=0;exitPerimeter=0;entryX=0;entryY=0.363;entryDx=0;entryDy=0;endArrow=none;endFill=0;entryPerimeter=0;" parent="1" source="a0_Y8HoA8iCjuZJ2-91r-1" target="a0_Y8HoA8iCjuZJ2-91r-7" edge="1">
          <mxGeometry relative="1" as="geometry">
            <mxPoint x="130" y="210" as="sourcePoint" />
            <mxPoint x="180" y="140" as="targetPoint" />
          </mxGeometry>
        </mxCell>
        <mxCell id="a0_Y8HoA8iCjuZJ2-91r-10" style="rounded=0;orthogonalLoop=1;jettySize=auto;html=1;exitX=1;exitY=0.3333333333333333;exitDx=0;exitDy=0;exitPerimeter=0;entryX=0;entryY=0.5;entryDx=0;entryDy=0;endArrow=none;endFill=0;" parent="1" source="a0_Y8HoA8iCjuZJ2-91r-1" target="a0_Y8HoA8iCjuZJ2-91r-6" edge="1">
          <mxGeometry relative="1" as="geometry">
            <mxPoint x="140" y="220" as="sourcePoint" />
            <mxPoint x="190" y="150" as="targetPoint" />
          </mxGeometry>
        </mxCell>
        <mxCell id="a0_Y8HoA8iCjuZJ2-91r-13" style="rounded=0;orthogonalLoop=1;jettySize=auto;html=1;exitX=0;exitY=0.5;exitDx=0;exitDy=0;entryX=1;entryY=0;entryDx=0;entryDy=0;endArrow=block;endFill=0;" parent="1" source="a0_Y8HoA8iCjuZJ2-91r-11" target="a0_Y8HoA8iCjuZJ2-91r-6" edge="1">
          <mxGeometry relative="1" as="geometry" />
        </mxCell>
        <mxCell id="a0_Y8HoA8iCjuZJ2-91r-11" value="攻击鲨鱼" style="ellipse;whiteSpace=wrap;html=1;" parent="1" vertex="1">
          <mxGeometry x="300" y="150" width="70" height="40" as="geometry" />
        </mxCell>
        <mxCell id="a0_Y8HoA8iCjuZJ2-91r-12" value="捕捉马林鱼" style="ellipse;whiteSpace=wrap;html=1;" parent="1" vertex="1">
          <mxGeometry x="300" y="220" width="70" height="40" as="geometry" />
        </mxCell>
        <mxCell id="a0_Y8HoA8iCjuZJ2-91r-14" style="rounded=0;orthogonalLoop=1;jettySize=auto;html=1;exitX=0;exitY=0.5;exitDx=0;exitDy=0;entryX=1;entryY=1;entryDx=0;entryDy=0;endArrow=block;endFill=0;" parent="1" source="a0_Y8HoA8iCjuZJ2-91r-12" target="a0_Y8HoA8iCjuZJ2-91r-6" edge="1">
          <mxGeometry relative="1" as="geometry">
            <mxPoint x="320" y="194" as="sourcePoint" />
            <mxPoint x="250" y="210" as="targetPoint" />
          </mxGeometry>
        </mxCell>
        <mxCell id="a0_Y8HoA8iCjuZJ2-91r-17" style="rounded=0;orthogonalLoop=1;jettySize=auto;html=1;entryX=1;entryY=1;entryDx=0;entryDy=0;dashed=1;dashPattern=8 8;endArrow=open;endFill=0;exitX=0.5;exitY=0;exitDx=0;exitDy=0;" parent="1" source="a0_Y8HoA8iCjuZJ2-91r-6" target="a0_Y8HoA8iCjuZJ2-91r-5" edge="1">
          <mxGeometry relative="1" as="geometry">
            <mxPoint x="250" y="290" as="sourcePoint" />
            <mxPoint x="250" y="140" as="targetPoint" />
          </mxGeometry>
        </mxCell>
        <mxCell id="a0_Y8HoA8iCjuZJ2-91r-18" value="&amp;lt;extend&amp;gt;" style="text;strokeColor=none;align=center;fillColor=none;html=1;verticalAlign=middle;whiteSpace=wrap;rounded=0;" parent="1" vertex="1">
          <mxGeometry x="214" y="149" width="60" height="30" as="geometry" />
        </mxCell>
        <mxCell id="a0_Y8HoA8iCjuZJ2-91r-20" value="&amp;lt;extend&amp;gt;" style="text;strokeColor=none;align=center;fillColor=none;html=1;verticalAlign=middle;whiteSpace=wrap;rounded=0;" parent="1" vertex="1">
          <mxGeometry x="439" y="185" width="60" height="30" as="geometry" />
        </mxCell>
        <mxCell id="a0_Y8HoA8iCjuZJ2-91r-21" value="改变状态" style="ellipse;whiteSpace=wrap;html=1;" parent="1" vertex="1">
          <mxGeometry x="170" y="400" width="70" height="40" as="geometry" />
        </mxCell>
        <mxCell id="a0_Y8HoA8iCjuZJ2-91r-22" value="返航" style="ellipse;whiteSpace=wrap;html=1;" parent="1" vertex="1">
          <mxGeometry x="274" y="460" width="70" height="40" as="geometry" />
        </mxCell>
        <mxCell id="Bc4zyyOP21GiCKYISt5y-3" style="edgeStyle=orthogonalEdgeStyle;rounded=0;orthogonalLoop=1;jettySize=auto;html=1;exitX=1;exitY=0.5;exitDx=0;exitDy=0;entryX=1;entryY=0;entryDx=0;entryDy=0;endArrow=open;endFill=0;dashed=1;dashPattern=8 8;" parent="1" source="a0_Y8HoA8iCjuZJ2-91r-23" target="a0_Y8HoA8iCjuZJ2-91r-12" edge="1">
          <mxGeometry relative="1" as="geometry">
            <Array as="points">
              <mxPoint x="420" y="420" />
              <mxPoint x="420" y="226" />
            </Array>
          </mxGeometry>
        </mxCell>
        <mxCell id="a0_Y8HoA8iCjuZJ2-91r-23" value="停止" style="ellipse;whiteSpace=wrap;html=1;" parent="1" vertex="1">
          <mxGeometry x="274" y="400" width="70" height="40" as="geometry" />
        </mxCell>
        <mxCell id="a0_Y8HoA8iCjuZJ2-91r-24" value="行驶" style="ellipse;whiteSpace=wrap;html=1;" parent="1" vertex="1">
          <mxGeometry x="274" y="340" width="70" height="40" as="geometry" />
        </mxCell>
        <mxCell id="a0_Y8HoA8iCjuZJ2-91r-25" style="rounded=0;orthogonalLoop=1;jettySize=auto;html=1;exitX=1;exitY=0.3333333333333333;exitDx=0;exitDy=0;exitPerimeter=0;entryX=0;entryY=0.5;entryDx=0;entryDy=0;endArrow=none;endFill=0;" parent="1" source="a0_Y8HoA8iCjuZJ2-91r-4" target="a0_Y8HoA8iCjuZJ2-91r-21" edge="1">
          <mxGeometry relative="1" as="geometry">
            <mxPoint x="111" y="210" as="sourcePoint" />
            <mxPoint x="180" y="210" as="targetPoint" />
          </mxGeometry>
        </mxCell>
        <mxCell id="a0_Y8HoA8iCjuZJ2-91r-26" style="edgeStyle=orthogonalEdgeStyle;rounded=0;orthogonalLoop=1;jettySize=auto;html=1;dashed=1;dashPattern=8 8;endArrow=open;endFill=0;exitX=0.678;exitY=0.048;exitDx=0;exitDy=0;exitPerimeter=0;entryX=0.5;entryY=0;entryDx=0;entryDy=0;" parent="1" source="a0_Y8HoA8iCjuZJ2-91r-21" target="a0_Y8HoA8iCjuZJ2-91r-5" edge="1">
          <mxGeometry relative="1" as="geometry">
            <mxPoint x="250" y="290" as="sourcePoint" />
            <mxPoint x="270" y="80" as="targetPoint" />
            <Array as="points">
              <mxPoint x="218" y="310" />
              <mxPoint x="500" y="310" />
              <mxPoint x="500" y="110" />
            </Array>
          </mxGeometry>
        </mxCell>
        <mxCell id="a0_Y8HoA8iCjuZJ2-91r-27" style="rounded=0;orthogonalLoop=1;jettySize=auto;html=1;exitX=0;exitY=0.5;exitDx=0;exitDy=0;entryX=1;entryY=0;entryDx=0;entryDy=0;endArrow=block;endFill=0;" parent="1" source="a0_Y8HoA8iCjuZJ2-91r-24" target="a0_Y8HoA8iCjuZJ2-91r-21" edge="1">
          <mxGeometry relative="1" as="geometry">
            <mxPoint x="310" y="250" as="sourcePoint" />
            <mxPoint x="240" y="224" as="targetPoint" />
          </mxGeometry>
        </mxCell>
        <mxCell id="a0_Y8HoA8iCjuZJ2-91r-28" style="rounded=0;orthogonalLoop=1;jettySize=auto;html=1;exitX=0;exitY=0.5;exitDx=0;exitDy=0;entryX=1;entryY=0.5;entryDx=0;entryDy=0;endArrow=block;endFill=0;" parent="1" source="a0_Y8HoA8iCjuZJ2-91r-23" target="a0_Y8HoA8iCjuZJ2-91r-21" edge="1">
          <mxGeometry relative="1" as="geometry">
            <mxPoint x="284" y="370" as="sourcePoint" />
            <mxPoint x="240" y="416" as="targetPoint" />
          </mxGeometry>
        </mxCell>
        <mxCell id="a0_Y8HoA8iCjuZJ2-91r-29" style="rounded=0;orthogonalLoop=1;jettySize=auto;html=1;exitX=0;exitY=0.5;exitDx=0;exitDy=0;entryX=1;entryY=1;entryDx=0;entryDy=0;endArrow=block;endFill=0;" parent="1" source="a0_Y8HoA8iCjuZJ2-91r-22" target="a0_Y8HoA8iCjuZJ2-91r-21" edge="1">
          <mxGeometry relative="1" as="geometry">
            <mxPoint x="294" y="380" as="sourcePoint" />
            <mxPoint x="250" y="426" as="targetPoint" />
          </mxGeometry>
        </mxCell>
        <mxCell id="a0_Y8HoA8iCjuZJ2-91r-32" style="rounded=0;orthogonalLoop=1;jettySize=auto;html=1;entryX=1;entryY=0.5;entryDx=0;entryDy=0;dashed=1;dashPattern=8 8;endArrow=open;endFill=0;exitX=1;exitY=0.5;exitDx=0;exitDy=0;edgeStyle=orthogonalEdgeStyle;" parent="1" source="a0_Y8HoA8iCjuZJ2-91r-12" target="a0_Y8HoA8iCjuZJ2-91r-22" edge="1">
          <mxGeometry relative="1" as="geometry">
            <mxPoint x="439" y="460" as="sourcePoint" />
            <mxPoint x="464" y="424" as="targetPoint" />
            <Array as="points">
              <mxPoint x="460" y="240" />
              <mxPoint x="460" y="480" />
            </Array>
          </mxGeometry>
        </mxCell>
        <mxCell id="a0_Y8HoA8iCjuZJ2-91r-33" value="鱼" style="shape=umlActor;verticalLabelPosition=bottom;verticalAlign=top;html=1;outlineConnect=0;" parent="1" vertex="1">
          <mxGeometry x="90" y="650" width="30" height="60" as="geometry" />
        </mxCell>
        <mxCell id="a0_Y8HoA8iCjuZJ2-91r-34" value="鲨鱼" style="shape=umlActor;verticalLabelPosition=bottom;verticalAlign=top;html=1;outlineConnect=0;" parent="1" vertex="1">
          <mxGeometry x="150" y="590" width="30" height="60" as="geometry" />
        </mxCell>
        <mxCell id="a0_Y8HoA8iCjuZJ2-91r-35" value="马林鱼" style="shape=umlActor;verticalLabelPosition=bottom;verticalAlign=top;html=1;outlineConnect=0;" parent="1" vertex="1">
          <mxGeometry x="150" y="707" width="30" height="60" as="geometry" />
        </mxCell>
        <mxCell id="a0_Y8HoA8iCjuZJ2-91r-36" style="rounded=0;orthogonalLoop=1;jettySize=auto;html=1;exitX=0;exitY=0.3333333333333333;exitDx=0;exitDy=0;entryX=1;entryY=0.3333333333333333;entryDx=0;entryDy=0;endArrow=block;endFill=0;entryPerimeter=0;exitPerimeter=0;" parent="1" source="a0_Y8HoA8iCjuZJ2-91r-34" target="a0_Y8HoA8iCjuZJ2-91r-33" edge="1">
          <mxGeometry relative="1" as="geometry">
            <mxPoint x="284" y="555" as="sourcePoint" />
            <mxPoint x="240" y="509" as="targetPoint" />
          </mxGeometry>
        </mxCell>
        <mxCell id="a0_Y8HoA8iCjuZJ2-91r-37" style="rounded=0;orthogonalLoop=1;jettySize=auto;html=1;entryX=1;entryY=0.3333333333333333;entryDx=0;entryDy=0;endArrow=block;endFill=0;entryPerimeter=0;exitX=0;exitY=0.3333333333333333;exitDx=0;exitDy=0;exitPerimeter=0;" parent="1" source="a0_Y8HoA8iCjuZJ2-91r-35" target="a0_Y8HoA8iCjuZJ2-91r-33" edge="1">
          <mxGeometry relative="1" as="geometry">
            <mxPoint x="294" y="565" as="sourcePoint" />
            <mxPoint x="250" y="519" as="targetPoint" />
          </mxGeometry>
        </mxCell>
        <mxCell id="a0_Y8HoA8iCjuZJ2-91r-38" value="捕食&lt;span style=&quot;color: rgba(0, 0, 0, 0); font-family: monospace; font-size: 0px; text-align: start; text-wrap: nowrap;&quot;&gt;%3CmxGraphModel%3E%3Croot%3E%3CmxCell%20id%3D%220%22%2F%3E%3CmxCell%20id%3D%221%22%20parent%3D%220%22%2F%3E%3CmxCell%20id%3D%222%22%20value%3D%22%E8%BF%94%E8%88%AA%22%20style%3D%22ellipse%3BwhiteSpace%3Dwrap%3Bhtml%3D1%3B%22%20vertex%3D%221%22%20parent%3D%221%22%3E%3CmxGeometry%20x%3D%22274%22%20y%3D%22460%22%20width%3D%2270%22%20height%3D%2240%22%20as%3D%22geometry%22%2F%3E%3C%2FmxCell%3E%3C%2Froot%3E%3C%2FmxGraphModel%3E&lt;/span&gt;" style="ellipse;whiteSpace=wrap;html=1;" parent="1" vertex="1">
          <mxGeometry x="274" y="561" width="70" height="40" as="geometry" />
        </mxCell>
        <mxCell id="a0_Y8HoA8iCjuZJ2-91r-52" style="edgeStyle=orthogonalEdgeStyle;rounded=0;orthogonalLoop=1;jettySize=auto;html=1;exitX=1;exitY=0.5;exitDx=0;exitDy=0;entryX=1;entryY=0.5;entryDx=0;entryDy=0;dashed=1;endArrow=open;endFill=0;dashPattern=8 8;" parent="1" source="a0_Y8HoA8iCjuZJ2-91r-39" target="a0_Y8HoA8iCjuZJ2-91r-24" edge="1">
          <mxGeometry relative="1" as="geometry" />
        </mxCell>
        <mxCell id="a0_Y8HoA8iCjuZJ2-91r-39" value="游动" style="ellipse;whiteSpace=wrap;html=1;" parent="1" vertex="1">
          <mxGeometry x="274" y="631" width="70" height="40" as="geometry" />
        </mxCell>
        <mxCell id="a0_Y8HoA8iCjuZJ2-91r-40" value="被打击" style="ellipse;whiteSpace=wrap;html=1;" parent="1" vertex="1">
          <mxGeometry x="274" y="698" width="70" height="40" as="geometry" />
        </mxCell>
        <mxCell id="a0_Y8HoA8iCjuZJ2-91r-41" value="流血" style="ellipse;whiteSpace=wrap;html=1;" parent="1" vertex="1">
          <mxGeometry x="274" y="766" width="70" height="40" as="geometry" />
        </mxCell>
        <mxCell id="a0_Y8HoA8iCjuZJ2-91r-42" style="rounded=0;orthogonalLoop=1;jettySize=auto;html=1;entryX=0;entryY=0.5;entryDx=0;entryDy=0;endArrow=none;endFill=0;" parent="1" target="a0_Y8HoA8iCjuZJ2-91r-38" edge="1">
          <mxGeometry relative="1" as="geometry">
            <mxPoint x="180" y="680" as="sourcePoint" />
            <mxPoint x="180" y="430" as="targetPoint" />
          </mxGeometry>
        </mxCell>
        <mxCell id="a0_Y8HoA8iCjuZJ2-91r-43" style="rounded=0;orthogonalLoop=1;jettySize=auto;html=1;entryX=0;entryY=0.5;entryDx=0;entryDy=0;endArrow=none;endFill=0;" parent="1" target="a0_Y8HoA8iCjuZJ2-91r-39" edge="1">
          <mxGeometry relative="1" as="geometry">
            <mxPoint x="180" y="680" as="sourcePoint" />
            <mxPoint x="190" y="440" as="targetPoint" />
          </mxGeometry>
        </mxCell>
        <mxCell id="a0_Y8HoA8iCjuZJ2-91r-44" style="rounded=0;orthogonalLoop=1;jettySize=auto;html=1;entryX=0;entryY=0.5;entryDx=0;entryDy=0;endArrow=none;endFill=0;" parent="1" target="a0_Y8HoA8iCjuZJ2-91r-40" edge="1">
          <mxGeometry relative="1" as="geometry">
            <mxPoint x="180" y="680" as="sourcePoint" />
            <mxPoint x="284" y="661" as="targetPoint" />
          </mxGeometry>
        </mxCell>
        <mxCell id="a0_Y8HoA8iCjuZJ2-91r-45" style="rounded=0;orthogonalLoop=1;jettySize=auto;html=1;entryX=0;entryY=0.5;entryDx=0;entryDy=0;endArrow=none;endFill=0;" parent="1" target="a0_Y8HoA8iCjuZJ2-91r-41" edge="1">
          <mxGeometry relative="1" as="geometry">
            <mxPoint x="180" y="680" as="sourcePoint" />
            <mxPoint x="294" y="671" as="targetPoint" />
          </mxGeometry>
        </mxCell>
        <mxCell id="a0_Y8HoA8iCjuZJ2-91r-46" style="rounded=0;orthogonalLoop=1;jettySize=auto;html=1;entryX=0.5;entryY=0;entryDx=0;entryDy=0;dashed=1;dashPattern=8 8;endArrow=open;endFill=0;exitX=0.5;exitY=1;exitDx=0;exitDy=0;" parent="1" source="a0_Y8HoA8iCjuZJ2-91r-40" target="a0_Y8HoA8iCjuZJ2-91r-41" edge="1">
          <mxGeometry relative="1" as="geometry">
            <mxPoint x="456.98" y="500" as="sourcePoint" />
            <mxPoint x="430.98" y="740" as="targetPoint" />
          </mxGeometry>
        </mxCell>
        <mxCell id="a0_Y8HoA8iCjuZJ2-91r-49" style="rounded=0;orthogonalLoop=1;jettySize=auto;html=1;dashed=1;dashPattern=8 8;endArrow=open;endFill=0;exitX=1;exitY=1;exitDx=0;exitDy=0;edgeStyle=orthogonalEdgeStyle;entryX=1;entryY=0.5;entryDx=0;entryDy=0;" parent="1" source="a0_Y8HoA8iCjuZJ2-91r-12" target="a0_Y8HoA8iCjuZJ2-91r-40" edge="1">
          <mxGeometry relative="1" as="geometry">
            <mxPoint x="354" y="591" as="sourcePoint" />
            <mxPoint x="354" y="796" as="targetPoint" />
            <Array as="points">
              <mxPoint x="390" y="254" />
              <mxPoint x="390" y="718" />
            </Array>
          </mxGeometry>
        </mxCell>
        <mxCell id="a0_Y8HoA8iCjuZJ2-91r-50" style="rounded=0;orthogonalLoop=1;jettySize=auto;html=1;dashed=1;dashPattern=8 8;endArrow=open;endFill=0;exitX=1;exitY=0.5;exitDx=0;exitDy=0;edgeStyle=orthogonalEdgeStyle;entryX=0.871;entryY=0.818;entryDx=0;entryDy=0;entryPerimeter=0;" parent="1" source="a0_Y8HoA8iCjuZJ2-91r-11" target="a0_Y8HoA8iCjuZJ2-91r-40" edge="1">
          <mxGeometry relative="1" as="geometry">
            <mxPoint x="370" y="264" as="sourcePoint" />
            <mxPoint x="354" y="728" as="targetPoint" />
            <Array as="points">
              <mxPoint x="520" y="170" />
              <mxPoint x="520" y="730" />
              <mxPoint x="350" y="730" />
            </Array>
          </mxGeometry>
        </mxCell>
        <mxCell id="a0_Y8HoA8iCjuZJ2-91r-53" value="&amp;lt;extend&amp;gt;" style="text;strokeColor=none;align=center;fillColor=none;html=1;verticalAlign=middle;whiteSpace=wrap;rounded=0;" parent="1" vertex="1">
          <mxGeometry x="530" y="330" width="60" height="30" as="geometry" />
        </mxCell>
        <mxCell id="a0_Y8HoA8iCjuZJ2-91r-54" value="&amp;lt;extend&amp;gt;" style="text;strokeColor=none;align=center;fillColor=none;html=1;verticalAlign=middle;whiteSpace=wrap;rounded=0;" parent="1" vertex="1">
          <mxGeometry x="430" y="550" width="60" height="30" as="geometry" />
        </mxCell>
        <mxCell id="a0_Y8HoA8iCjuZJ2-91r-55" value="&amp;lt;extend&amp;gt;" style="text;strokeColor=none;align=center;fillColor=none;html=1;verticalAlign=middle;whiteSpace=wrap;rounded=0;" parent="1" vertex="1">
          <mxGeometry x="300" y="500" width="60" height="30" as="geometry" />
        </mxCell>
        <mxCell id="a0_Y8HoA8iCjuZJ2-91r-56" value="&amp;lt;extend&amp;gt;" style="text;strokeColor=none;align=center;fillColor=none;html=1;verticalAlign=middle;whiteSpace=wrap;rounded=0;" parent="1" vertex="1">
          <mxGeometry x="320" y="737" width="60" height="30" as="geometry" />
        </mxCell>
        <mxCell id="a0_Y8HoA8iCjuZJ2-91r-57" value="&amp;lt;extend&amp;gt;" style="text;strokeColor=none;align=center;fillColor=none;html=1;verticalAlign=middle;whiteSpace=wrap;rounded=0;" parent="1" vertex="1">
          <mxGeometry x="330" y="320" width="60" height="30" as="geometry" />
        </mxCell>
        <mxCell id="a0_Y8HoA8iCjuZJ2-91r-58" value="&amp;lt;extend&amp;gt;" style="text;strokeColor=none;align=center;fillColor=none;html=1;verticalAlign=middle;whiteSpace=wrap;rounded=0;" parent="1" vertex="1">
          <mxGeometry x="460" y="400" width="60" height="30" as="geometry" />
        </mxCell>
        <mxCell id="Bc4zyyOP21GiCKYISt5y-1" value="鲸鱼" style="shape=umlActor;verticalLabelPosition=bottom;verticalAlign=top;html=1;outlineConnect=0;" parent="1" vertex="1">
          <mxGeometry x="150" y="806" width="30" height="60" as="geometry" />
        </mxCell>
        <mxCell id="Bc4zyyOP21GiCKYISt5y-2" style="rounded=0;orthogonalLoop=1;jettySize=auto;html=1;entryX=1;entryY=1;entryDx=0;entryDy=0;endArrow=block;endFill=0;entryPerimeter=0;exitX=0;exitY=0.3333333333333333;exitDx=0;exitDy=0;exitPerimeter=0;" parent="1" source="Bc4zyyOP21GiCKYISt5y-1" target="a0_Y8HoA8iCjuZJ2-91r-33" edge="1">
          <mxGeometry relative="1" as="geometry">
            <mxPoint x="160" y="737" as="sourcePoint" />
            <mxPoint x="130" y="680" as="targetPoint" />
          </mxGeometry>
        </mxCell>
      </root>
    </mxGraphModel>
  </diagram>
</mxfile>
